<mxfile host="app.diagrams.net" agent="Mozilla/5.0 (X11; Ubuntu; Linux x86_64; rv:136.0) Gecko/20100101 Firefox/136.0" version="26.1.3">
  <diagram name="Page-1" id="wwmMeiqTVE5GZByMpiDV">
    <mxGraphModel dx="880" dy="448" grid="1" gridSize="10" guides="1" tooltips="1" connect="1" arrows="1" fold="1" page="1" pageScale="1" pageWidth="850" pageHeight="1100" math="0" shadow="0">
      <root>
        <mxCell id="0" />
        <mxCell id="1" parent="0" />
        <mxCell id="0fLcyXpg6vVan-Txby_1-2" style="edgeStyle=orthogonalEdgeStyle;rounded=0;orthogonalLoop=1;jettySize=auto;html=1;entryX=0;entryY=0.5;entryDx=0;entryDy=0;" edge="1" parent="1" source="0fLcyXpg6vVan-Txby_1-1" target="0fLcyXpg6vVan-Txby_1-3">
          <mxGeometry relative="1" as="geometry">
            <mxPoint x="440" y="220" as="targetPoint" />
          </mxGeometry>
        </mxCell>
        <mxCell id="0fLcyXpg6vVan-Txby_1-1" value="BEGIN" style="ellipse;whiteSpace=wrap;html=1;" vertex="1" parent="1">
          <mxGeometry x="30" y="180" width="120" height="80" as="geometry" />
        </mxCell>
        <mxCell id="0fLcyXpg6vVan-Txby_1-5" style="edgeStyle=orthogonalEdgeStyle;rounded=0;orthogonalLoop=1;jettySize=auto;html=1;entryX=0;entryY=0.5;entryDx=0;entryDy=0;" edge="1" parent="1" source="0fLcyXpg6vVan-Txby_1-3" target="0fLcyXpg6vVan-Txby_1-4">
          <mxGeometry relative="1" as="geometry" />
        </mxCell>
        <mxCell id="0fLcyXpg6vVan-Txby_1-8" style="edgeStyle=orthogonalEdgeStyle;rounded=0;orthogonalLoop=1;jettySize=auto;html=1;" edge="1" parent="1" source="0fLcyXpg6vVan-Txby_1-3" target="0fLcyXpg6vVan-Txby_1-9">
          <mxGeometry relative="1" as="geometry">
            <mxPoint x="500" y="220" as="targetPoint" />
          </mxGeometry>
        </mxCell>
        <mxCell id="0fLcyXpg6vVan-Txby_1-3" value="READ_SELF" style="ellipse;whiteSpace=wrap;html=1;" vertex="1" parent="1">
          <mxGeometry x="250" y="180" width="120" height="80" as="geometry" />
        </mxCell>
        <mxCell id="0fLcyXpg6vVan-Txby_1-7" style="edgeStyle=orthogonalEdgeStyle;rounded=0;orthogonalLoop=1;jettySize=auto;html=1;" edge="1" parent="1" source="0fLcyXpg6vVan-Txby_1-4" target="0fLcyXpg6vVan-Txby_1-9">
          <mxGeometry relative="1" as="geometry">
            <mxPoint x="550" y="200" as="targetPoint" />
          </mxGeometry>
        </mxCell>
        <mxCell id="0fLcyXpg6vVan-Txby_1-4" value="I_AM_ROOT" style="ellipse;whiteSpace=wrap;html=1;" vertex="1" parent="1">
          <mxGeometry x="365" y="60" width="120" height="80" as="geometry" />
        </mxCell>
        <mxCell id="0fLcyXpg6vVan-Txby_1-10" style="edgeStyle=orthogonalEdgeStyle;rounded=0;orthogonalLoop=1;jettySize=auto;html=1;" edge="1" parent="1" source="0fLcyXpg6vVan-Txby_1-9" target="0fLcyXpg6vVan-Txby_1-13">
          <mxGeometry relative="1" as="geometry">
            <mxPoint x="490" y="310" as="targetPoint" />
          </mxGeometry>
        </mxCell>
        <mxCell id="0fLcyXpg6vVan-Txby_1-11" style="edgeStyle=orthogonalEdgeStyle;rounded=0;orthogonalLoop=1;jettySize=auto;html=1;" edge="1" parent="1" source="0fLcyXpg6vVan-Txby_1-9" target="0fLcyXpg6vVan-Txby_1-12">
          <mxGeometry relative="1" as="geometry">
            <mxPoint x="610" y="310" as="targetPoint" />
          </mxGeometry>
        </mxCell>
        <mxCell id="0fLcyXpg6vVan-Txby_1-9" value="PREP" style="ellipse;whiteSpace=wrap;html=1;" vertex="1" parent="1">
          <mxGeometry x="490" y="180" width="120" height="80" as="geometry" />
        </mxCell>
        <mxCell id="0fLcyXpg6vVan-Txby_1-17" style="edgeStyle=orthogonalEdgeStyle;rounded=0;orthogonalLoop=1;jettySize=auto;html=1;" edge="1" parent="1" source="0fLcyXpg6vVan-Txby_1-12" target="0fLcyXpg6vVan-Txby_1-18">
          <mxGeometry relative="1" as="geometry">
            <mxPoint x="620" y="430" as="targetPoint" />
          </mxGeometry>
        </mxCell>
        <mxCell id="0fLcyXpg6vVan-Txby_1-12" value="REPORT_UP" style="ellipse;whiteSpace=wrap;html=1;" vertex="1" parent="1">
          <mxGeometry x="560" y="310" width="120" height="80" as="geometry" />
        </mxCell>
        <mxCell id="0fLcyXpg6vVan-Txby_1-14" style="edgeStyle=orthogonalEdgeStyle;rounded=0;orthogonalLoop=1;jettySize=auto;html=1;entryX=0;entryY=0.5;entryDx=0;entryDy=0;" edge="1" parent="1" source="0fLcyXpg6vVan-Txby_1-13" target="0fLcyXpg6vVan-Txby_1-12">
          <mxGeometry relative="1" as="geometry" />
        </mxCell>
        <mxCell id="0fLcyXpg6vVan-Txby_1-15" style="edgeStyle=orthogonalEdgeStyle;rounded=0;orthogonalLoop=1;jettySize=auto;html=1;" edge="1" parent="1" source="0fLcyXpg6vVan-Txby_1-13" target="0fLcyXpg6vVan-Txby_1-16">
          <mxGeometry relative="1" as="geometry">
            <mxPoint x="470" y="430" as="targetPoint" />
          </mxGeometry>
        </mxCell>
        <mxCell id="0fLcyXpg6vVan-Txby_1-13" value="&lt;font style=&quot;font-size: 9px;&quot;&gt;WAIT_FOR_CHILDREN_RESPONSES&lt;/font&gt;" style="ellipse;whiteSpace=wrap;html=1;" vertex="1" parent="1">
          <mxGeometry x="410" y="310" width="120" height="80" as="geometry" />
        </mxCell>
        <mxCell id="0fLcyXpg6vVan-Txby_1-22" style="edgeStyle=orthogonalEdgeStyle;rounded=0;orthogonalLoop=1;jettySize=auto;html=1;" edge="1" parent="1" source="0fLcyXpg6vVan-Txby_1-16" target="0fLcyXpg6vVan-Txby_1-23">
          <mxGeometry relative="1" as="geometry">
            <mxPoint x="470" y="580" as="targetPoint" />
          </mxGeometry>
        </mxCell>
        <mxCell id="0fLcyXpg6vVan-Txby_1-16" value="PROPAGATE_DOWN" style="ellipse;whiteSpace=wrap;html=1;" vertex="1" parent="1">
          <mxGeometry x="410" y="430" width="120" height="80" as="geometry" />
        </mxCell>
        <mxCell id="0fLcyXpg6vVan-Txby_1-21" style="edgeStyle=orthogonalEdgeStyle;rounded=0;orthogonalLoop=1;jettySize=auto;html=1;" edge="1" parent="1" source="0fLcyXpg6vVan-Txby_1-18" target="0fLcyXpg6vVan-Txby_1-19">
          <mxGeometry relative="1" as="geometry" />
        </mxCell>
        <mxCell id="0fLcyXpg6vVan-Txby_1-33" style="edgeStyle=orthogonalEdgeStyle;rounded=0;orthogonalLoop=1;jettySize=auto;html=1;" edge="1" parent="1" source="0fLcyXpg6vVan-Txby_1-18" target="0fLcyXpg6vVan-Txby_1-34">
          <mxGeometry relative="1" as="geometry">
            <mxPoint x="730" y="470" as="targetPoint" />
          </mxGeometry>
        </mxCell>
        <mxCell id="0fLcyXpg6vVan-Txby_1-18" value="REPORT_UP_SECURE_LOCK" style="ellipse;whiteSpace=wrap;html=1;" vertex="1" parent="1">
          <mxGeometry x="560" y="430" width="120" height="80" as="geometry" />
        </mxCell>
        <mxCell id="0fLcyXpg6vVan-Txby_1-35" style="edgeStyle=orthogonalEdgeStyle;rounded=0;orthogonalLoop=1;jettySize=auto;html=1;" edge="1" parent="1" source="0fLcyXpg6vVan-Txby_1-19" target="0fLcyXpg6vVan-Txby_1-36">
          <mxGeometry relative="1" as="geometry">
            <mxPoint x="740" y="580" as="targetPoint" />
          </mxGeometry>
        </mxCell>
        <mxCell id="0fLcyXpg6vVan-Txby_1-19" value="REPORT_UP_SEND" style="ellipse;whiteSpace=wrap;html=1;" vertex="1" parent="1">
          <mxGeometry x="560" y="540" width="120" height="80" as="geometry" />
        </mxCell>
        <mxCell id="0fLcyXpg6vVan-Txby_1-25" style="edgeStyle=orthogonalEdgeStyle;rounded=0;orthogonalLoop=1;jettySize=auto;html=1;entryX=1;entryY=0.5;entryDx=0;entryDy=0;entryPerimeter=0;" edge="1" parent="1" source="0fLcyXpg6vVan-Txby_1-23" target="0fLcyXpg6vVan-Txby_1-29">
          <mxGeometry relative="1" as="geometry">
            <mxPoint x="360" y="580" as="targetPoint" />
          </mxGeometry>
        </mxCell>
        <mxCell id="0fLcyXpg6vVan-Txby_1-23" value="ALL_IS_WELL" style="ellipse;whiteSpace=wrap;html=1;" vertex="1" parent="1">
          <mxGeometry x="410" y="540" width="120" height="80" as="geometry" />
        </mxCell>
        <mxCell id="0fLcyXpg6vVan-Txby_1-24" style="edgeStyle=orthogonalEdgeStyle;rounded=0;orthogonalLoop=1;jettySize=auto;html=1;entryX=1;entryY=0.5;entryDx=0;entryDy=0;" edge="1" parent="1" source="0fLcyXpg6vVan-Txby_1-19" target="0fLcyXpg6vVan-Txby_1-23">
          <mxGeometry relative="1" as="geometry" />
        </mxCell>
        <mxCell id="0fLcyXpg6vVan-Txby_1-29" value="" style="verticalLabelPosition=bottom;verticalAlign=top;html=1;shape=mxgraph.flowchart.or;" vertex="1" parent="1">
          <mxGeometry x="275" y="545" width="70" height="70" as="geometry" />
        </mxCell>
        <mxCell id="0fLcyXpg6vVan-Txby_1-34" value="" style="verticalLabelPosition=bottom;verticalAlign=top;html=1;shape=mxgraph.flowchart.or;" vertex="1" parent="1">
          <mxGeometry x="740" y="435" width="70" height="70" as="geometry" />
        </mxCell>
        <mxCell id="0fLcyXpg6vVan-Txby_1-36" value="" style="verticalLabelPosition=bottom;verticalAlign=top;html=1;shape=mxgraph.flowchart.or;" vertex="1" parent="1">
          <mxGeometry x="740" y="545" width="70" height="70" as="geometry" />
        </mxCell>
      </root>
    </mxGraphModel>
  </diagram>
</mxfile>
